<svg xmlns="http://www.w3.org/2000/svg" width="16" height="16" fill="none" viewBox="0 0 16 16"><path fill-rule="evenodd" stroke="#959DA5" stroke-linecap="round" stroke-linejoin="round" d="M15.5 12.1952C15.5 12.9126 14.9137 13.4996 14.1957 13.4996H1.80435C1.08696 13.4996 0.5 12.9126 0.5 12.1952L0.5 9.80435C0.5 9.08696 1.08696 8.5 1.80435 8.5H14.1956C14.9137 8.5 15.5 9.08696 15.5 9.80435L15.5 12.1952Z" clip-rule="evenodd"/><path stroke="#959DA5" stroke-linecap="round" stroke-linejoin="round" d="M2.45654 11.5H13.5435"/><path fill="#959DA5" fill-rule="evenodd" d="M13.5 9.5C13.224 9.5 13 9.725 13 10C13 10.275 13.224 10.5 13.5 10.5C13.776 10.5 14 10.275 14 10C14 9.725 13.776 9.5 13.5 9.5" clip-rule="evenodd"/><path fill="#959DA5" fill-rule="evenodd" d="M11.5 9.5C11.224 9.5 11 9.725 11 10C11 10.275 11.224 10.5 11.5 10.5C11.776 10.5 12 10.275 12 10C12 9.725 11.776 9.5 11.5 9.5" clip-rule="evenodd"/><path stroke="#959DA5" stroke-linecap="round" stroke-linejoin="round" d="M15.5 9.81464L13.8728 2.76261C13.6922 2.06804 12.9572 1.5 12.2391 1.5H3.76087C3.04348 1.5 2.30848 2.06804 2.12783 2.76261L0.5 9.8"/></svg>