<svg xmlns="http://www.w3.org/2000/svg" width="16" height="16" fill="none" viewBox="0 0 16 16"><circle cx="7.5" cy="7.5" r="7" stroke="#959DA5"/><mask id="mask0_394_2982" width="15" height="15" x="0" y="0" maskUnits="userSpaceOnUse" style="mask-type:alpha"><circle cx="7.5" cy="7.5" r="7.5" fill="#C4C4C4"/></mask><g mask="url(#mask0_394_2982)"><path stroke="#959DA5" d="M14.5 7.5C14.5 9.42971 13.6822 11.1907 12.5493 12.4721C11.4035 13.7683 10.0054 14.5 8.90625 14.5C7.84644 14.5 6.81131 13.8113 6.01569 12.5383C5.22447 11.2724 4.71875 9.49235 4.71875 7.5C4.71875 5.50765 5.22447 3.72765 6.01569 2.4617C6.81131 1.1887 7.84644 0.5 8.90625 0.5C10.0054 0.5 11.4035 1.23172 12.5493 2.52786C13.6822 3.80934 14.5 5.57029 14.5 7.5Z"/></g><mask id="mask1_394_2982" width="16" height="15" x="1" y="0" maskUnits="userSpaceOnUse" style="mask-type:alpha"><circle cx="9.375" cy="7.5" r="7.5" fill="#C4C4C4"/></mask><g mask="url(#mask1_394_2982)"><path stroke="#959DA5" d="M10.2812 7.5C10.2812 9.49235 9.77553 11.2724 8.98431 12.5383C8.18869 13.8113 7.15356 14.5 6.09375 14.5C4.99456 14.5 3.5965 13.7683 2.45067 12.4721C1.31781 11.1907 0.5 9.42971 0.5 7.5C0.5 5.57029 1.31781 3.80934 2.45067 2.52786C3.5965 1.23172 4.99456 0.5 6.09375 0.5C7.15356 0.5 8.18869 1.1887 8.98431 2.4617C9.77553 3.72765 10.2812 5.50765 10.2812 7.5Z"/></g><line x2="15" y1="7.5" y2="7.5" stroke="#959DA5"/></svg>