<svg width="16" height="16" viewBox="0 0 16 16" fill="none" xmlns="http://www.w3.org/2000/svg">
    <path fill-rule="evenodd" clip-rule="evenodd" d="M8.568 1.03a6.8 6.8 0 0 1 4.192 2.02 7.06 7.06 0 0 1 .46 9.39 6.85 6.85 0 0 1-8.58 1.74 7 7 0 0 1-3.12-3.5 7.12 7.12 0 0 1-.23-4.71 7 7 0 0 1 2.77-3.79 6.8 6.8 0 0 1 4.508-1.15zm.472 12.85a5.89 5.89 0 0 0 3.41-2.07 6.07 6.07 0 0 0-.4-8.06 5.82 5.82 0 0 0-7.43-.74 6.06 6.06 0 0 0 .5 10.29 5.81 5.81 0 0 0 3.92.58zM8.51 7h-1v4h1V7zm0-2h-1v1h1V5z" />
</svg>
