<svg xmlns="http://www.w3.org/2000/svg" width="16" height="16" fill="none" viewBox="0 0 16 16"><path fill="#24292F" d="M8.19789 8C8.19789 8.51894 8.1155 8.97538 7.95073 9.36932C7.78595 9.76326 7.56152 10.0871 7.27743 10.3409L8.10982 11.3864H6.96209L6.49334 10.8097C6.17705 10.929 5.83709 10.9886 5.47346 10.9886C4.95641 10.9886 4.4924 10.8712 4.08141 10.6364C3.67042 10.4015 3.34562 10.0611 3.10698 9.61506C2.86834 9.16903 2.74902 8.63068 2.74902 8C2.74902 7.36553 2.86834 6.82576 3.10698 6.38068C3.34562 5.9356 3.67042 5.59612 4.08141 5.36222C4.4924 5.12831 4.95641 5.01136 5.47346 5.01136C5.98861 5.01136 6.45167 5.12831 6.86266 5.36222C7.27365 5.59612 7.59893 5.9356 7.83851 6.38068C8.0781 6.82576 8.19789 7.36553 8.19789 8ZM5.04732 8.88636H6.09277L6.52459 9.44034C6.65906 9.27936 6.7637 9.0786 6.83851 8.83807C6.91332 8.59754 6.95073 8.31818 6.95073 8C6.95073 7.38257 6.81626 6.91146 6.54732 6.58665C6.27838 6.26184 5.92043 6.09943 5.47346 6.09943C5.02648 6.09943 4.66853 6.26184 4.39959 6.58665C4.13065 6.91146 3.99618 7.38257 3.99618 8C3.99618 8.61553 4.13065 9.08617 4.39959 9.41193C4.66853 9.73769 5.02648 9.90057 5.47346 9.90057C5.5852 9.90057 5.69126 9.89015 5.79164 9.86932L5.04732 8.88636ZM9.52695 11V5H10.7571V9.9858H13.2514V11H9.52695Z"/><path fill="#24292F" fill-rule="evenodd" d="M13 1.5H3C2.17157 1.5 1.5 2.17157 1.5 3V13C1.5 13.8284 2.17157 14.5 3 14.5H13C13.8284 14.5 14.5 13.8284 14.5 13V3C14.5 2.17157 13.8284 1.5 13 1.5ZM3 0C1.34315 0 0 1.34315 0 3V13C0 14.6569 1.34315 16 3 16H13C14.6569 16 16 14.6569 16 13V3C16 1.34315 14.6569 0 13 0H3Z" clip-rule="evenodd"/></svg>