<svg width="15" height="10" viewBox="0 0 15 10" fill="none"
  xmlns="http://www.w3.org/2000/svg">
  <path d="M11.9467 3.97333H12C12.8178 4.00889 13.5111 4.31111 14.08 4.88C14.6844 5.44889 14.9867 6.16 14.9867 7.01333C14.9867 7.83111 14.6844 8.54222 14.08 9.14667C13.5111 9.71556 12.8178 10 12 10H4.53333C4.03556 10 3.55556 9.91111 3.09333 9.73333C2.63111 9.52 2.24 9.21778 1.92 8.82667C1.49333 8.36444 1.20889 7.83111 1.06667 7.22667C0.96 6.58667 0.995556 5.96444 1.17333 5.36C1.38667 4.75556 1.72444 4.25778 2.18667 3.86667C2.68444 3.44 3.23556 3.17333 3.84 3.06667C4.33778 2.96 4.83556 2.97778 5.33333 3.12C5.65333 2.40889 6.15111 1.85778 6.82667 1.46667C7.50222 1.07556 8.21333 0.933333 8.96 1.04C9.74222 1.14667 10.4 1.48444 10.9333 2.05333C11.5022 2.58667 11.84 3.22667 11.9467 3.97333ZM5.01333 8.98667H12C12.5689 8.98667 13.0489 8.79111 13.44 8.4C13.8311 8.00889 14.0267 7.54667 14.0267 7.01333C14.0267 6.44444 13.8311 5.96444 13.44 5.57333C13.0489 5.18222 12.5689 4.98667 12 4.98667H11.0933L10.9867 4.13333C10.9156 3.6 10.6667 3.13778 10.24 2.74667C9.84889 2.35556 9.36889 2.12444 8.8 2.05333C8.26667 1.94667 7.75111 2.03556 7.25333 2.32C6.79111 2.60444 6.45333 2.99555 6.24 3.49333L5.92 4.24L5.06667 4.08C4.88889 4.04444 4.71111 4.00889 4.53333 3.97333C3.82222 3.97333 3.23556 4.22222 2.77333 4.72C2.41778 5.07556 2.18667 5.50222 2.08 6C1.97333 6.49778 2.00889 6.97778 2.18667 7.44C2.4 7.90222 2.72 8.27556 3.14667 8.56C3.57333 8.84444 4.03556 8.98667 4.53333 8.98667H5.01333Z" fill="white"/>
</svg>
