<svg width="12" height="14" viewBox="0 0 12 14" fill="none"
  xmlns="http://www.w3.org/2000/svg">
  <path d="M11.0133 2.52C11.0133 2.05778 10.7822 1.63111 10.32 1.24C9.89333 0.848888 9.28889 0.546666 8.50667 0.333333C7.72445 0.12 6.88889 0.0133333 6 0.0133333C5.11111 0.0133333 4.27556 0.12 3.49333 0.333333C2.71111 0.546666 2.08889 0.848888 1.62667 1.24C1.2 1.63111 0.986667 2.05778 0.986667 2.52L1.04 2.62667H0.986667V11.48L1.04 11.8533C1.18222 12.4578 1.71556 12.9733 2.64 13.4C3.6 13.7911 4.72 13.9867 6 13.9867C7.28 13.9867 8.38222 13.7911 9.30667 13.4C10.2667 12.9733 10.8178 12.4578 10.96 11.8533L11.0133 11.48V2.62667H10.96L11.0133 2.52ZM6 1.02667C6.74667 1.02667 7.45778 1.11556 8.13333 1.29333C8.70222 1.43556 9.14667 1.63111 9.46667 1.88C9.82222 2.12889 10 2.34222 10 2.52C10 2.69778 9.82222 2.91111 9.46667 3.16C9.14667 3.37333 8.70222 3.55111 8.13333 3.69333C7.45778 3.87111 6.74667 3.96 6 3.96C5.25333 3.96 4.54222 3.87111 3.86667 3.69333C3.29778 3.55111 2.83556 3.37333 2.48 3.16C2.16 2.91111 2 2.69778 2 2.52C2 2.34222 2.16 2.12889 2.48 1.88C2.83556 1.63111 3.29778 1.43556 3.86667 1.29333C4.54222 1.11556 5.25333 1.02667 6 1.02667ZM10 11.48L9.94667 11.64C9.91111 11.8178 9.71556 12.0133 9.36 12.2267C9.04 12.44 8.61333 12.6178 8.08 12.76C7.44 12.9378 6.74667 13.0267 6 13.0267C5.25333 13.0267 4.56 12.9378 3.92 12.76C3.38667 12.6178 2.94222 12.44 2.58667 12.2267C2.26667 12.0133 2.08889 11.8178 2.05333 11.64L2 11.48V4.01333C3.24444 4.72444 4.57778 5.06222 6 5.02667C7.42222 5.06222 8.75556 4.70667 10 3.96V11.48Z" fill="#CCCCCC"/>
</svg>
