<svg xmlns="http://www.w3.org/2000/svg" xmlns:xlink="http://www.w3.org/1999/xlink" id="Capa_1" x="0" y="0" fill="none" version="1.1" viewBox="0 0 432 432" xml:space="preserve" style="enable-background:new 0 0 432 432"><g><g><g><polygon fill="#C5C5C5" points="234.24 9.067 183.893 59.413 284.587 59.413"/><path fill="#C5C5C5" d="m 259.24622,341.40906 v -32.34375 q 13.35937,6.32812 27.07031,9.66797 13.71094,3.33984 26.89453,3.33984 35.15625,0 53.61328,-23.55469 18.63282,-23.73047 21.26953,-71.89453 -10.19531,15.11719 -25.83984,23.20313 -15.64453,8.08593 -34.62891,8.08593 -39.375,0 -62.40234,-23.73046 -22.85156,-23.90625 -22.85156,-65.21485 0,-40.42969 23.90625,-64.86328 23.90625,-24.433594 63.63281,-24.433594 45.52734,0 69.43359,34.980474 24.08204,34.80468 24.08204,101.25 0,62.05078 -29.53125,99.14062 -29.35547,36.91406 -79.10157,36.91406 -13.35937,0 -27.07031,-2.63672 -13.71094,-2.63671 -28.47656,-7.91015 z m 70.66406,-111.26953 q 23.90625,0 37.79297,-16.34766 14.0625,-16.34766 14.0625,-44.82422 0,-28.30078 -14.0625,-44.64844 -13.88672,-16.52343 -37.79297,-16.52343 -23.90625,0 -37.96875,16.52343 -13.88672,16.34766 -13.88672,44.64844 0,28.47656 13.88672,44.82422 14.0625,16.34766 37.96875,16.34766 z"/><polygon fill="#C5C5C5" points="234.24 422.933 283.947 373.227 184.533 373.227"/><path fill="#C5C5C5" d="M 35.300905,316.97546 H 93.308718 V 116.76062 L 30.203249,129.41687 V 97.07312 L 92.957155,84.41687 h 35.507815 v 232.55859 h 58.00781 v 29.88282 H 35.300905 Z"/></g></g></g></svg>